<?xml version="1.0" ?><svg id="Layer_1" style="enable-background:new 0 0 91 91;" version="1.1" viewBox="0 0 91 91" xml:space="preserve" xmlns="http://www.w3.org/2000/svg" xmlns:xlink="http://www.w3.org/1999/xlink"><style type="text/css">
	.st0{fill:#3B6A75;}
</style><g><path class="st0" d="M13.8,41.3c9.5-5.6,17.5-12.1,24.5-19.9c-0.2,7.7-0.5,15.5-0.6,23.2c-0.1,6.9-0.2,13.9-0.3,20.8   c-0.1,5.7-1.2,11.8-0.5,17.5c0.7,6.8,12.1,9.9,13.2,1.8c1.7-12.5-0.3-26.4-0.5-39c-0.1-6.6-0.4-13.2-0.6-19.8   c1.3,1.1,2.6,2.1,3.8,3c7.6,5.6,15.8,9.4,24.9,11.6c3.3,0.8,5-3.5,2.3-5.4C73.8,31,67.2,26.9,61.6,22c-2.9-2.5-5.5-5.3-7.7-8.5   c-2.1-3.2-3.3-7-5.6-10.1c-3.2-4.3-9-2.9-10.1,2c-7.4,11.4-16.5,24.1-27,32.5C9.4,39.5,11.8,42.4,13.8,41.3z"/></g></svg>