<?xml version="1.0" ?><svg id="Layer_1" style="enable-background:new 0 0 91 91;" version="1.1" viewBox="0 0 91 91" xml:space="preserve" xmlns="http://www.w3.org/2000/svg" xmlns:xlink="http://www.w3.org/1999/xlink"><style type="text/css">
	.st0{fill:#3B6A75;}
</style><g><path class="st0" d="M12.6,28.9c10.2,5.4,19.8,12.2,25.3,22.6c2.8,5.3,10.9,0.6,8-4.7C43,41.5,39,36.9,34.5,33   c13.6-1.6,30-1.2,32.3,14.2c1,6.8,1.3,13.8,1.4,20.7c0.1,6-1.2,12.7,2,18c0.9,1.6,3.6,2.3,4.9,0.6c5.2-6.6,3.7-17.6,3.5-25.7   c-0.2-8.1,0.2-18.2-4.3-25.4c-9-14.5-29.5-13.8-45.3-12c7.6-4.1,14.4-9.5,20.9-15.7c1.1-1.1-0.3-3.1-1.7-2.2   c-10.8,6.9-22.3,12.3-34.6,15.7C10.3,22.2,9.4,27.2,12.6,28.9z"/></g></svg>