<?xml version="1.0" ?><svg id="Layer_1" style="enable-background:new 0 0 91 91;" version="1.1" viewBox="0 0 91 91" xml:space="preserve" xmlns="http://www.w3.org/2000/svg" xmlns:xlink="http://www.w3.org/1999/xlink"><style type="text/css">
	.st0{fill:#3B6A75;}
</style><g><path class="st0" d="M21.8,86c3.2-5.3,1.9-12.1,2-18c0.1-6.9,0.4-13.9,1.4-20.7C27.5,31.8,43.9,31.5,57.5,33   c-4.5,3.9-8.5,8.4-11.4,13.7c-2.9,5.2,5.2,10,8,4.7c5.5-10.4,15.1-17.2,25.3-22.6c3.2-1.7,2.3-6.6-1-7.6   c-12.3-3.4-23.8-8.8-34.6-15.7c-1.4-0.9-2.9,1.1-1.7,2.2c6.5,6.3,13.3,11.6,20.9,15.7c-15.8-1.9-36.3-2.5-45.3,12   c-4.3,6.9-4,16.2-4.3,24c-0.3,8.3-2,20.2,3.5,27.1C18.2,88.2,20.8,87.5,21.8,86z"/></g></svg>